HIERARCHY
ROOT Spine
{
    OFFSET 0.0 0.0 -0.0
    CHANNELS 6 Xposition Yposition Zposition Zrotation Xrotation Yrotation
    JOINT ShoulderCenter
    {
        OFFSET 0.0 31.03716468811035 0.0
        CHANNELS 3 Zrotation Xrotation Yrotation
        JOINT LeftShoulder
        {
            OFFSET 19.379974365234375 0.0 0.0
            CHANNELS 3 Zrotation Xrotation Yrotation
            JOINT LeftElbow
            {
                OFFSET 26.164424896240234 0.0 0.0
                CHANNELS 3 Zrotation Xrotation Yrotation
                JOINT LeftHand
                {
                    OFFSET 33.40778350830078 0.0 0.0
                    CHANNELS 3 Zrotation Xrotation Yrotation
                    End Site
                    {
                        OFFSET 13.363115310668945 0.0 0.0
                    }
                }
            }
        }
        JOINT RightShoulder
        {
            OFFSET -19.379974365234375 0.0 0.0
            CHANNELS 3 Zrotation Xrotation Yrotation
            JOINT RightElbow
            {
                OFFSET -26.164424896240234 0.0 0.0
                CHANNELS 3 Zrotation Xrotation Yrotation
                JOINT RightHand
                {
                    OFFSET -33.40778350830078 0.0 0.0
                    CHANNELS 3 Zrotation Xrotation Yrotation
                    End Site
                    {
                        OFFSET -13.363115310668945 0.0 0.0
                    }
                }
            }
        }
        End Site
        {
            OFFSET 0.0 12.414865493774414 0.0
        }
    }
    JOINT LeftHip
    {
        OFFSET 15.9434285402264 -15.9434285402264 0.0
        CHANNELS 3 Zrotation Xrotation Yrotation
        JOINT LeftKnee
        {
            OFFSET 0.0 -41.68049621582031 0.0
            CHANNELS 3 Zrotation Xrotation Yrotation
            JOINT LeftFoot
            {
                OFFSET 0.0 -46.9678955078125 0.0
                CHANNELS 3 Zrotation Xrotation Yrotation
                End Site
                {
                    OFFSET 0.0 0.0 18.787158966064453
                }
            }
        }
    }
    JOINT RightHip
    {
        OFFSET -15.9434285402264 -15.9434285402264 0.0
        CHANNELS 3 Zrotation Xrotation Yrotation
        JOINT RightKnee
        {
            OFFSET 0.0 -41.68049621582031 0.0
            CHANNELS 3 Zrotation Xrotation Yrotation
            JOINT RightFoot
            {
                OFFSET 0.0 -46.9678955078125 0.0
                CHANNELS 3 Zrotation Xrotation Yrotation
                End Site
                {
                    OFFSET 0.0 0.0 18.787158966064453
                }
            }
        }
    }
}
MOTION
Frames: 5
Frame Time: 0.03333333333333333
-4.300000190734863 15.899999618530273 27.900001525878906 0.4677097939662013 38.08392201954851 0.7364496176938808 1.1929999197082686e-08 -2.881796776243593e-06 6.048156300084775 174.16770949369698 40.67178921980174 -159.73773297136148 4.0564682139755e-08 2.8688072007959752e-08 120.52625117754499 9.939233379573489e-17 -3.9756933518293955e-16 3.4483642953516864e-34 -176.54987495815678 31.024328039716845 175.2280020787801 -4.4281768907690045e-07 5.592902954261508e-07 -133.61977712290388 0.0 0.0 0.0 7.622687882473219 -46.27828890245665 31.009931148147558 6.609521308594247 6.292547212180198 -23.54174116327562 0.0 0.0 7.221474252346363e-16 -24.898992760963 -33.07634263090813 24.41929627720406 -8.466154663922687 -10.482312632226925 -118.71063691151757 -2.3854160110976376e-15 -8.276074308844047e-32 3.975693351829396e-15
-4.300000190734863 15.899999618530273 28.099998474121094 0.4658087434055172 37.82566271293975 0.742881758758124 1.905470878821699e-07 1.913534413585051e-08 6.196764061137714 174.06878510221173 41.66539843926749 -159.48895397677978 -1.669101276094696e-07 -9.65854770974651e-07 119.81683712679039 -1.9878466759146972e-16 7.951386703658791e-16 -6.361109362927033e-15 -176.7106149017318 32.604193294419 175.49457902233993 -4.282730021140574e-07 8.011268546523945e-07 -132.98607120787497 7.951386703658791e-16 0.0 0.0 7.351463061902021 -45.87928808770616 29.59747977335377 6.788966173133393 6.3855936517564755 -24.21131388362723 0.0 0.0 -1.9878466759146977e-16 -24.913768218594274 -33.102613335782586 24.306640990508946 -8.447209264025922 -10.467946940589407 -118.69501478441526 0.0 0.0 3.9756933518293955e-16
-4.300000190734863 15.899999618530273 28.200000762939453 0.23196525348076194 37.568360737571716 0.8965452883404517 7.74683857921557e-08 2.846342420619984e-06 6.250472055133155 173.96312235274723 42.69671521263222 -159.6837456052013 -1.0869842992238444e-07 1.434407757897644e-07 119.71747946804042 0.0 0.0 0.0 -176.37287539656478 33.642579940566954 175.68339979865206 -1.0374444832051746e-06 8.276090619832633e-08 -132.57773534781137 7.951386703658792e-16 -7.951386703658792e-16 5.517382872562698e-33 7.66437655755749 -45.342871577531476 28.113168865165605 6.393373572548687 6.363072993338615 -24.588197699082034 0.0 1.0094533901129326e-16 0.0 -24.662076107393094 -32.86696885928043 31.77393459880792 -9.886519658737077 -9.458961095733068 -125.79738686978841 7.951386703658792e-16 -3.1805546814635168e-15 3.975693351829396e-16
-4.300000190734863 15.899999618530273 28.299999237060547 0.23385880869200995 37.939459735033616 0.6308283666894705 -2.6467208182153457e-08 9.741896100295154e-07 6.8679773724983155 173.02677441616697 44.144593483668075 -159.24257403793368 -4.6041203902543716e-07 -4.595475184957376e-07 120.09425372032081 3.9756933518293955e-16 0.0 0.0 -176.8006273742534 35.70972485614201 176.43632107192474 3.4204183641103464e-08 -3.130869697462426e-08 -132.73323402253536 0.0 -7.951386703658792e-16 0.0 7.976116415272123 -45.674458475695815 27.880448839479183 6.472677752810037 6.783822918346174 -26.324789662982077 -8.620910738379216e-35 1.9878466759146985e-16 4.969616689786746e-17 -24.646821603749736 -33.59301100477935 27.57787197197312 -9.044875630579089 -10.090724681148494 -121.29826485167078 0.0 0.0 7.951386703658792e-16
-4.400000095367432 15.899999618530273 28.299999237060547 2.7664715801238437e-08 38.08485508031824 0.7730591922783211 -1.9909190066501937e-10 2.135001927693185e-06 6.7946163734725555 172.56584334397652 45.657210415614145 -159.0461860574375 4.2444225911104645e-08 1.0379976418497958e-06 120.54189684197522 -7.951386703658792e-16 7.951386703658792e-16 5.517382872562698e-33 -176.18314276304397 37.073088349830726 176.54243683710482 4.629963253199264e-08 6.619448238401317e-07 -133.18251994239523 -7.951386703658792e-16 4.4139062980501586e-32 -6.3611093629270335e-15 8.197086372107592 -45.957189327132845 27.309143246129743 6.485008928631309 7.1003670165100115 -27.108247644122418 1.5902773407317582e-15 1.9878466759146977e-16 1.4908850069360232e-16 -24.70549589602839 -33.67947261850079 36.93135909710368 -10.695194509309072 -8.480497908913655 -132.94735822157045 6.344990303447103e-32 7.951386703658792e-16 -9.14409470920761e-15
